<svg width="529" height="66" viewBox="0 0 529 66" fill="none" xmlns="http://www.w3.org/2000/svg">
<path d="M53.2199 52.1807C52.0199 53.5807 44.5199 61.7807 32.0199 61.9807C30.7199 61.9807 18.7199 62.0807 10.1199 52.5807C1.41991 42.9807 -0.180094 27.6807 7.11991 16.6807C13.4199 7.08066 23.0199 4.18066 26.4199 4.18066" stroke="#050000" stroke-width="3" stroke-miterlimit="10" stroke-linecap="round"/>
<path d="M26.6199 4.18066H108.82" stroke="black" stroke-width="3" stroke-miterlimit="10" stroke-linecap="round"/>
<path d="M109.02 4.18066C115.72 5.18066 119.52 7.78066 125.22 13.5807C132.52 20.9807 133.02 33.1807 130.52 42.9807C130.12 44.5807 125.12 56.7807 111.62 60.9807C98.2199 65.0807 87.4198 57.7807 85.9198 56.6807C84.3198 55.4807 75.1198 48.7807 73.6198 36.0807C72.2198 23.9807 78.9198 15.4807 80.1198 13.9807" stroke="black" stroke-width="3" stroke-miterlimit="10" stroke-linecap="round"/>
<path d="M157.88 63.5501V2.8501L184.18 63.5501L210.68 2.8501V63.5501" stroke="black" stroke-width="3" stroke-linecap="round" stroke-linejoin="round"/>
<path d="M236.68 62.7L262.38 2L288.08 64.4" stroke="black" stroke-width="3" stroke-linecap="round" stroke-linejoin="round"/>
<path d="M253.91 43.73H270.86" stroke="black" stroke-width="3" stroke-miterlimit="10" stroke-linecap="round"/>
<path d="M314.08 63.0999V2.3999L358.28 63.9999L357.28 2.3999L418.88 3.3999" stroke="black" stroke-width="3" stroke-linecap="round" stroke-linejoin="round"/>
<path d="M419.28 3.3999C421.18 3.3999 424.28 4.3999 426.08 5.1999C431.48 7.5999 432.98 10.4999 434.18 12.1999" stroke="black" stroke-width="3" stroke-miterlimit="10" stroke-linecap="round"/>
<path d="M391.38 13.3999C389.58 15.3999 385.48 20.6999 384.48 28.5999C383.18 38.6999 387.68 46.0999 388.98 48.1999C390.28 50.2999 396.58 59.4999 408.78 61.6999C410.48 61.9999 421.28 63.6999 431.18 56.4999C443.38 47.4999 443.28 32.7999 443.18 31.3999" stroke="black" stroke-width="3" stroke-miterlimit="10" stroke-linecap="round"/>
<path d="M410.58 33.1997H436.28" stroke="black" stroke-width="3" stroke-miterlimit="10" stroke-linecap="round"/>
<path d="M497.469 3.56574C489.069 3.76574 483.169 7.76574 481.569 8.86574C476.369 12.5657 473.969 17.0657 472.869 19.0657C472.069 20.4657 468.669 27.2657 469.269 36.4657C469.469 38.8657 469.769 42.7657 471.869 47.2657C474.969 53.5657 479.769 56.7657 481.669 58.0657C483.069 58.9657 487.069 61.3657 492.769 62.3657C501.069 63.8657 507.569 61.3657 508.869 60.8657C510.369 60.2657 517.569 57.2657 522.669 49.3657C524.369 46.7657 527.869 40.3657 527.369 31.5657C527.269 29.1657 526.569 22.8657 522.269 16.6657C521.969 16.0657 512.869 3.26574 497.469 3.56574Z" stroke="black" stroke-width="3" stroke-miterlimit="10" stroke-linecap="round"/>
</svg>
